<svg xmlns="http://www.w3.org/2000/svg" viewBox="0 0 512.001 512.001" style="enable-background:new 0 0 512.001 512.001" xml:space="preserve"><path style="fill:#699e32" d="M491.816 102.201H119.117c7.744 10.917 12.314 26.245 12.314 40.65H457.15c6.924 0 10.538 3.612 10.538 10.536v207.347h24.129c6.924 0 12.537-5.612 12.537-12.535V114.736c-.001-6.924-5.614-12.535-12.538-12.535z"/><path style="fill:#699e32" d="M491.816 102.201H119.117c7.744 10.917 12.314 26.245 12.314 40.65H457.15c6.924 0 10.538 3.612 10.538 10.536v207.347h24.129c6.924 0 12.537-5.612 12.537-12.535V114.736c-.001-6.924-5.614-12.535-12.538-12.535z"/><path style="fill:#5d8c28" d="M483.865 141.851H159.146c0 .332-.016.667-.02.999h298.023c6.924 0 10.538 3.612 10.538 10.536v207.347h23.13c2.008 0 3.901-.484 5.585-1.324V154.387c0-6.924-5.612-12.536-12.537-12.536z"/><path style="fill:#73ad3b" d="M457.149 140.852H131.43c0 14.405-4.567 29.734-12.314 40.65H422.48c6.924 0 10.538 3.613 10.538 10.537v207.347h24.131c6.924 0 12.537-5.612 12.537-12.536V153.387c0-6.924-5.613-12.535-12.537-12.535z"/><path style="fill:#699e32" d="M460.154 192.04c0-6.923-3.613-10.537-10.537-10.537H422.48c6.924 0 10.538 3.613 10.538 10.537v207.347h24.131a12.5 12.5 0 0 0 3.005-.378V192.04z"/><path style="fill:#73af3a" d="M422.48 179.503H54.269c-6.924 0-12.537 5.612-12.537 12.536v233.463c0 6.922 5.608 12.536 12.537 12.536H422.48c6.928 0 12.536-5.613 12.536-12.536V192.039c0-6.923-5.612-12.536-12.536-12.536z"/><path style="fill:#7ebc48" d="M422.48 179.503H130.245c-38.598 92.354-7.358 201.587 79.209 258.535H422.48c6.928 0 12.536-5.613 12.536-12.536V192.039c0-6.923-5.612-12.536-12.536-12.536z"/><circle style="fill:#ade573" cx="238.374" cy="310.819" r="91.545"/><path style="fill:#9cd665" d="M271.356 379.372c-79.903 0-120.81-95.156-67.523-153.346-33.434 13.634-57 46.459-57 84.793 0 50.559 40.985 91.542 91.541 91.542 26.734 0 50.788-11.461 67.523-29.736-10.659 4.346-22.32 6.747-34.541 6.747z"/><circle style="fill:#45ce73" cx="74.534" cy="140.849" r="66.889"/><path style="fill:#34b75c" d="M36.327 117.17c0-13.992 4.302-26.976 11.648-37.713C24.25 89.735 7.646 113.35 7.646 140.852c0 36.943 29.949 66.889 66.891 66.889 22.95 0 43.194-11.564 55.241-29.177-44.076 19.096-93.451-13.306-93.451-61.394z"/><path d="M238.364 211.757c-54.642 0-99.096 44.454-99.096 99.095 0 85.979 102.323 130.704 165.552 73.508a7.5 7.5 0 0 0 .53-10.594 7.5 7.5 0 0 0-10.594-.53c-53.673 48.553-140.488 10.558-140.488-62.385 0-46.37 37.725-84.094 84.095-84.094s84.095 37.724 84.095 84.094c0 15.565-4.282 30.763-12.385 43.948a7.5 7.5 0 1 0 12.78 7.854c9.556-15.55 14.605-33.462 14.605-51.802 0-54.64-44.453-99.094-99.094-99.094z"/><path d="M241.246 364.828v-12.245c15.711-.65 27.162-7.806 27.162-23.378 0-15.962-12.646-20.32-28.164-24.044v-19.259c8.593.89 17.113 5.848 18.589 7.57l6.791-12.469c-6.963-4.806-15.275-7.989-24.378-8.684v-11.243h-6.68v11.355c-26.772 2.231-30.862 28.297-19.815 38.238 4.874 4.387 14.447 7.434 20.817 8.85v19.147c-9.298-1.033-19.635-6.257-22.819-9.464l-6.791 13.248c7.697 5.419 17.786 9.242 28.609 10.02v12.356l6.679.002zm-1.002-43.861c8.535 2.732 11.8 5.202 11.8 9.796 0 5.195-3.934 7.904-11.8 8.126v-17.922zm-15.251-26.383c0-5.416 3.523-8.349 10.575-8.794v18.034c-7.115-2.076-10.575-4.139-10.575-9.24z"/><path d="M491.956 94.609H132.77a74.555 74.555 0 0 0-9.481-9.975 7.502 7.502 0 0 0-9.853 11.313c38.218 33.281 19.591 97.879-32.16 103.857C46.095 203.914 15 176.294 15 140.784c0-39.178 37.57-67.931 75.581-57.207a7.503 7.503 0 0 0 9.256-5.183 7.503 7.503 0 0 0-5.183-9.256 74.507 74.507 0 0 0-20.225-2.783C33.39 66.356 0 99.744 0 140.784c0 26.186 13.605 49.238 34.106 62.509v222.31c0 11.053 8.992 20.044 20.044 20.044h368.429c11.053 0 20.044-8.991 20.044-20.044v-18.631h14.646c11.053 0 20.044-8.992 20.044-20.043v-18.632h14.644c11.053 0 20.044-8.992 20.044-20.043V114.653c-.001-11.052-8.994-20.044-20.045-20.044zm-64.334 330.993a5.05 5.05 0 0 1-5.043 5.043H54.149a5.05 5.05 0 0 1-5.043-5.043V210.77c30.098 10.924 63.825 1.238 83.677-23.811h289.795a5.05 5.05 0 0 1 5.043 5.043l.001 233.6zm34.689-38.674a5.049 5.049 0 0 1-5.043 5.042h-14.646V192.002c0-11.053-8.991-20.044-20.044-20.044H142.025c3.531-7.624 5.673-15.86 6.46-23.673h308.783a5.049 5.049 0 0 1 5.043 5.042v233.601zm34.688-38.675a5.049 5.049 0 0 1-5.043 5.042h-14.644V153.327c0-11.052-8.992-20.043-20.044-20.043H148.485c-.835-8.318-3.18-16.59-6.461-23.674h349.932a5.05 5.05 0 0 1 5.043 5.043v233.6z"/><path d="M69.533 149.485 56.98 137.908a7.506 7.506 0 0 0-10.6.429 7.503 7.503 0 0 0 .429 10.6c19.049 17.568 19.002 18.404 22.886 18.404 4.177 0 2.341.716 39.299-35.599a7.502 7.502 0 0 0-10.514-10.7l-28.947 28.443z"/></svg>
