<svg xmlns="http://www.w3.org/2000/svg" xml:space="preserve" width="655.359" height="655.359" style="shape-rendering:geometricPrecision;text-rendering:geometricPrecision;image-rendering:optimizeQuality;fill-rule:evenodd;clip-rule:evenodd" viewBox="0 0 6.827 6.827"><defs><style>.fil3{fill:#40a548}.fil2{fill:#4fb44d}.fil1{fill:#c5dc77}.fil0{fill:#cee18c}</style></defs><g id="Layer_x0020_1"><g id="_573509336"><g id="Layer_3"><path id="_586959944" class="fil0" d="M.933 3.233h4.554v2.131H.933z"/><path id="_586958744" class="fil1" d="M3.21 3.233h2.277v2.131H3.21z"/><path id="_586954616" class="fil2" d="M1.052 3.352h4.316v1.893H1.052z"/><path id="_586953920" class="fil3" d="M3.21 3.352h2.158v1.893H3.21z"/><path id="_586954112" class="fil0" d="M3.21 4.95a.651.651 0 0 1-.648-.652c0-.36.29-.652.648-.652a.651.651 0 0 1 0 1.305zm0-1.21a.556.556 0 0 0-.553.558c0 .308.248.558.553.558.306 0 .554-.25.554-.558a.556.556 0 0 0-.554-.557z"/><path id="_586953248" class="fil0" d="M1.471 4.007h.649v.095h-.649z"/><path id="_586952768" class="fil0" d="M1.471 4.494h.649v.095h-.649z"/><path id="_586951904" class="fil1" d="M4.3 4.007h.649v.095H4.3z"/><path id="_586952168" class="fil1" d="M4.3 4.494h.649v.095H4.3z"/><g><path id="_586952384" class="fil0" d="m3.389 4.175-.115.019a.124.124 0 0 0-.016-.031.078.078 0 0 0-.023-.017v.09a.335.335 0 0 1 .126.053.123.123 0 0 1 .042.096.131.131 0 0 1-.015.063.152.152 0 0 1-.089.075.242.242 0 0 1-.064.01v.059H3.19v-.059a.283.283 0 0 1-.074-.015.15.15 0 0 1-.098-.124l.125-.015a.12.12 0 0 0 .015.045c.007.01.017.017.031.024v-.11a.581.581 0 0 1-.088-.03.118.118 0 0 1-.065-.11c0-.037.013-.068.039-.093.025-.025.064-.039.115-.042v-.059h.045v.06a.19.19 0 0 1 .106.033c.025.019.04.045.048.078zm-.2-.031a.058.058 0 0 0-.027.016.036.036 0 0 0-.008.023c0 .01.003.017.008.024a.058.058 0 0 0 .028.017v-.08zm.046.308a.072.072 0 0 0 .038-.02.045.045 0 0 0 .013-.03.041.041 0 0 0-.01-.028.095.095 0 0 0-.041-.023v.1z"/></g><path id="_586951280" class="fil1" d="M3.21 3.646v.095a.556.556 0 0 1 0 1.115v.095a.651.651 0 0 0 .649-.653.651.651 0 0 0-.649-.652z"/><g><path id="_586951808" class="fil1" d="M3.36 4.29a.335.335 0 0 0-.125-.054v-.09c.01.005.018.011.023.017.005.006.01.016.016.03l.115-.018a.133.133 0 0 0-.048-.078.19.19 0 0 0-.106-.034v-.059H3.21v.588h.025v-.059a.242.242 0 0 0 .064-.01.155.155 0 0 0 .089-.075.132.132 0 0 0 .015-.063.123.123 0 0 0-.042-.096zm-.087.142a.072.072 0 0 1-.038.02v-.1c.02.006.033.014.04.022.007.009.01.018.01.027a.044.044 0 0 1-.012.03z"/></g><g><path id="_586950776" class="fil0" d="M1.339 3.639h4.554V5.77H1.339z"/><path id="_586950968" class="fil1" d="M3.616 3.639h2.277V5.77H3.616z"/><path id="_586950728" class="fil2" d="M1.458 3.758h4.316v1.893H1.458z"/><path id="_586950104" class="fil3" d="M3.616 3.758h2.158v1.893H3.616z"/><path id="_586949936" class="fil0" d="M3.616 5.357a.651.651 0 0 1-.648-.653c0-.36.29-.652.648-.652a.651.651 0 0 1 0 1.305zm0-1.21a.556.556 0 0 0-.553.557c0 .308.248.558.553.558.306 0 .554-.25.554-.558a.556.556 0 0 0-.554-.557z"/><path id="_586950344" class="fil0" d="M1.878 4.413h.649v.095h-.649z"/><path id="_586949048" class="fil0" d="M1.878 4.9h.649v.095h-.649z"/><path id="_586949432" class="fil1" d="M4.706 4.413h.649v.095h-.649z"/><path id="_586980704" class="fil1" d="M4.706 4.9h.649v.095h-.649z"/><g><path id="_586980656" class="fil0" d="M3.795 4.581 3.68 4.6a.124.124 0 0 0-.016-.03.078.078 0 0 0-.023-.018v.09a.335.335 0 0 1 .126.053.123.123 0 0 1 .042.096.131.131 0 0 1-.015.063.152.152 0 0 1-.089.075.242.242 0 0 1-.064.01V5h-.045v-.06a.283.283 0 0 1-.074-.015.15.15 0 0 1-.098-.124l.125-.015a.12.12 0 0 0 .015.045c.007.01.017.017.032.024v-.11a.581.581 0 0 1-.09-.03.118.118 0 0 1-.064-.11c0-.037.013-.068.039-.093.025-.025.064-.039.115-.041v-.06h.045v.06a.19.19 0 0 1 .106.033c.025.019.04.045.048.078zm-.2-.03a.058.058 0 0 0-.027.015.036.036 0 0 0-.008.023c0 .01.003.018.008.024a.058.058 0 0 0 .028.017v-.08zm.046.307a.072.072 0 0 0 .039-.02.045.045 0 0 0 .012-.03.041.041 0 0 0-.01-.028.095.095 0 0 0-.041-.023v.1z"/></g><path id="_586980584" class="fil1" d="M3.616 4.052v.095a.556.556 0 0 1 0 1.115v.095a.651.651 0 0 0 .65-.653.651.651 0 0 0-.65-.652z"/><g><path id="_586980248" class="fil1" d="M3.767 4.695a.335.335 0 0 0-.126-.053v-.09c.01.006.018.011.023.017.005.006.01.016.016.03l.115-.018a.133.133 0 0 0-.048-.078.19.19 0 0 0-.106-.033v-.06h-.025v.588h.025V4.94a.242.242 0 0 0 .064-.01.155.155 0 0 0 .089-.075.132.132 0 0 0 .015-.063.123.123 0 0 0-.042-.096zm-.088.143a.072.072 0 0 1-.038.02v-.1c.02.007.033.014.04.022a.044.044 0 0 1-.002.058z"/></g></g><g><path id="_586979768" class="fil1" d="M3.232 1.52h.363v1.4h-.363z"/><path id="_586979696" class="fil1" d="m2.831 1.818.582-.761.582.761z"/></g></g></g></g><path style="fill:none" d="M0 0h6.827v6.827H0z"/></svg>